<svg width="18" height="18" viewBox="0 0 18 18" fill="none" xmlns="http://www.w3.org/2000/svg">
<path d="M13.412 14.4724C12.1361 15.2814 10.6229 15.7499 9.00023 15.7499C4.95609 15.7499 1.59161 12.8401 0.88623 8.99991C1.21374 7.21687 2.11449 5.63443 3.39035 4.45069L1.04525 2.10559L2.10591 1.04492L16.9552 15.8941L15.8945 16.9549L13.412 14.4724ZM4.4517 5.51203C3.45505 6.41987 2.72835 7.62516 2.41709 8.99991C3.10517 12.0388 5.82345 14.2499 9.00023 14.2499C10.1998 14.2499 11.334 13.9346 12.3182 13.3786L10.797 11.8573C10.2767 12.1852 9.6606 12.3749 9.00023 12.3749C7.13624 12.3749 5.6252 10.8638 5.6252 8.99991C5.6252 8.33946 5.81488 7.72333 6.14273 7.20307L4.4517 5.51203ZM9.68543 10.7458L7.25435 8.31471C7.17098 8.52696 7.1252 8.75803 7.1252 8.99991C7.1252 10.0354 7.9647 10.8749 9.00023 10.8749C9.24203 10.8749 9.47318 10.8291 9.68543 10.7458ZM15.6051 12.4441L14.532 11.371C15.0239 10.6699 15.3865 9.86871 15.5833 8.99991C14.8952 5.96089 12.1769 3.74988 9.00023 3.74988C8.3658 3.74988 7.74968 3.83806 7.16437 4.00339L5.98085 2.81987C6.91595 2.45195 7.93448 2.24988 9.00023 2.24988C13.0443 2.24988 16.4088 5.1597 17.1142 8.99991C16.88 10.2746 16.3529 11.4469 15.6051 12.4441ZM8.79218 5.63119C8.86095 5.627 8.93033 5.62488 9.00023 5.62488C10.8641 5.62488 12.3752 7.13592 12.3752 8.99991C12.3752 9.06973 12.3731 9.13911 12.3689 9.20788L8.79218 5.63119Z" fill="#242424"/>
</svg>
