<svg width="50" height="50" viewBox="0 0 50 50" fill="none" xmlns="http://www.w3.org/2000/svg">
<path d="M0 25C0 11.1929 11.1929 0 25 0C38.8071 0 50 11.1929 50 25C50 38.8071 38.8071 50 25 50C11.1929 50 0 38.8071 0 25Z" fill="#24292F"/>
<path d="M25 16C20.0301 16 16 20.1314 16 25.2278C16 29.305 18.5788 32.764 22.1548 33.9841C22.6046 34.0695 22.7697 33.784 22.7697 33.5402C22.7697 33.3202 22.7613 32.5932 22.7575 31.8222C20.2536 32.3804 19.7253 30.7334 19.7253 30.7334C19.3159 29.6668 18.726 29.3832 18.726 29.3832C17.9095 28.8105 18.7876 28.8222 18.7876 28.8222C19.6914 28.8873 20.1672 29.7732 20.1672 29.7732C20.9699 31.1839 22.2727 30.776 22.7863 30.5403C22.867 29.9438 23.1003 29.5368 23.3576 29.3064C21.3587 29.073 19.2572 28.2817 19.2572 24.7459C19.2572 23.7385 19.6088 22.9152 20.1845 22.269C20.0911 22.0366 19.783 21.098 20.2717 19.827C20.2717 19.827 21.0275 19.579 22.7474 20.7729C23.4652 20.5684 24.2352 20.4659 25 20.4624C25.7649 20.4659 26.5354 20.5684 27.2547 20.7729C28.9725 19.579 29.7272 19.827 29.7272 19.827C30.2171 21.098 29.9089 22.0366 29.8155 22.269C30.3925 22.9152 30.7417 23.7384 30.7417 24.7459C30.7417 28.2901 28.6363 29.0706 26.6322 29.299C26.955 29.5854 27.2426 30.147 27.2426 31.0078C27.2426 32.2425 27.2322 33.2363 27.2322 33.5402C27.2322 33.7858 27.3942 34.0735 27.8504 33.9829C31.4245 32.7613 34 29.3036 34 25.2278C34 20.1314 29.9705 16 25 16Z" fill="white"/>
<path d="M19.3707 29.1449C19.3509 29.1907 19.2805 29.2044 19.2165 29.173C19.1512 29.1429 19.1145 29.0804 19.1356 29.0344C19.1551 28.9872 19.2255 28.974 19.2906 29.0057C19.3561 29.0357 19.3934 29.0989 19.3707 29.1449ZM19.8134 29.5499C19.7705 29.5907 19.6866 29.5717 19.6296 29.5073C19.5707 29.4429 19.5597 29.3569 19.6033 29.3155C19.6475 29.2747 19.7289 29.2938 19.7879 29.3582C19.8468 29.4232 19.8582 29.5087 19.8133 29.55M20.1171 30.0681C20.0619 30.1074 19.9717 30.0705 19.916 29.9885C19.8609 29.9065 19.8609 29.808 19.9172 29.7686C19.9731 29.7291 20.0619 29.7646 20.1184 29.846C20.1735 29.9295 20.1735 30.0279 20.1171 30.0681M20.6307 30.6682C20.5814 30.724 20.4763 30.7091 20.3994 30.6329C20.3208 30.5585 20.2988 30.4529 20.3483 30.3971C20.3982 30.3413 20.5039 30.357 20.5814 30.4325C20.6595 30.5067 20.6834 30.6131 20.6308 30.6682M21.2945 30.8709C21.2728 30.9431 21.1716 30.976 21.0697 30.9453C20.9679 30.9137 20.9013 30.829 20.9218 30.756C20.943 30.6832 21.0446 30.649 21.1473 30.6819C21.249 30.7133 21.3158 30.7974 21.2946 30.8709M22.0501 30.9568C22.0526 31.0329 21.9661 31.096 21.8591 31.0974C21.7515 31.0998 21.6644 31.0382 21.6633 30.9634C21.6633 30.8865 21.7478 30.824 21.8554 30.8222C21.9624 30.82 22.0501 30.8812 22.0501 30.9568ZM22.7922 30.9276C22.805 31.0019 22.7306 31.0782 22.6244 31.0984C22.5199 31.118 22.4232 31.0722 22.4099 30.9986C22.3969 30.9224 22.4727 30.8462 22.577 30.8265C22.6834 30.8075 22.7786 30.8521 22.7922 30.9276Z" fill="white"/>
</svg>
