<svg width="50" height="50" viewBox="0 0 50 50" fill="none" xmlns="http://www.w3.org/2000/svg">
<path d="M0 25C0 11.1929 11.1929 0 25 0C38.8071 0 50 11.1929 50 25C50 38.8071 38.8071 50 25 50C11.1929 50 0 38.8071 0 25Z" fill="white"/>
<path fill-rule="evenodd" clip-rule="evenodd" d="M33.64 25.2046C33.64 24.5664 33.5827 23.9527 33.4764 23.3636H25V26.845H29.8436C29.635 27.97 29.0009 28.9232 28.0477 29.5614V31.8196H30.9564C32.6582 30.2527 33.64 27.9455 33.64 25.2046Z" fill="#4285F4"/>
<path fill-rule="evenodd" clip-rule="evenodd" d="M25 34C27.43 34 29.4673 33.1941 30.9564 31.8195L28.0477 29.5613C27.2418 30.1013 26.2109 30.4204 25 30.4204C22.6559 30.4204 20.6718 28.8372 19.9641 26.71H16.9573V29.0418C18.4382 31.9831 21.4818 34 25 34Z" fill="#34A853"/>
<path fill-rule="evenodd" clip-rule="evenodd" d="M19.9641 26.7099C19.7841 26.1699 19.6818 25.5931 19.6818 24.9999C19.6818 24.4068 19.7841 23.8299 19.9641 23.2899V20.9581H16.9573C16.3477 22.1731 16 23.5477 16 24.9999C16 26.4522 16.3477 27.8268 16.9573 29.0418L19.9641 26.7099Z" fill="#FBBC05"/>
<path fill-rule="evenodd" clip-rule="evenodd" d="M25 19.5795C26.3214 19.5795 27.5077 20.0336 28.4405 20.9255L31.0218 18.3441C29.4632 16.8918 27.4259 16 25 16C21.4818 16 18.4382 18.0168 16.9573 20.9582L19.9641 23.29C20.6718 21.1627 22.6559 19.5795 25 19.5795Z" fill="#EA4335"/>
</svg>
