<svg id="레이어_1" data-name="레이어 1" xmlns="http://www.w3.org/2000/svg" viewBox="0 0 901.46 150.59"><defs><style>.cls-1{fill:#0051ff;}.cls-2{fill:#3283ff;}</style></defs><polygon class="cls-1" points="60.97 150.59 91.45 79.08 121.93 7.57 60.97 7.57 0 7.57 30.48 79.08 60.97 150.59"/><polygon class="cls-2" points="107.59 150.59 138.07 79.08 168.56 7.57 107.59 7.57 46.63 7.57 77.11 79.08 107.59 150.59"/><path d="M226,185.55V52.65h29.25v39.7c5.3-6.06,13.94-8.79,23.18-8.79,18.34,0,34.55,9.86,34.55,41.83v60.16h-29.7V123.42c0-10.31-5.91-15.31-13.94-15.31s-14.09,4.85-14.09,14.55v62.89Z" transform="translate(-49.27 -46.71)"/><path d="M409.19,124v61.53H386.76l-1.21-6.37c-5.76,5.46-15.46,8.94-27.89,8.94S326.6,180.55,326.6,156c0-23.64,17.43-30.76,40.16-30.76h14.09v-5.76c0-9.85-7.43-12.28-17-12.28s-20.91,4.4-28.64,9.4l-3-22.12a63.27,63.27,0,0,1,35.61-10.92C389.79,83.56,409.19,91.29,409.19,124Zm-28.34,31.07V146H368.58c-8.79,0-13.49,3.18-13.49,10.3,0,6.52,4.7,10,12.27,10C373.27,166.3,380.85,163,380.85,155.09Z" transform="translate(-49.27 -46.71)"/><path d="M433.28,157.06V113.11H416.76V89h16.52V57.2h28.79V89h23v24.09h-23V155.7c0,5.15,3,7.88,7.88,8,4.55.15,10.46-.46,13.64-1.67l1.52,22c-5.31,2.43-12.73,4.09-21.37,4.09C445.25,188.12,433.28,179.94,433.28,157.06Z" transform="translate(-49.27 -46.71)"/><path d="M491.47,174.64,496,148.73c8.94,6.36,24.24,13,38.18,13,9.55,0,17.13-4.09,17.28-13,.15-8.34-6.52-13-20.31-18.19L524.35,128c-21.82-8.18-32.43-20.3-32.43-40.3,0-23.19,17.43-37.43,44.25-37.43a75.91,75.91,0,0,1,37.28,9.85l-3.79,24.55a65.93,65.93,0,0,0-31.37-8.19c-8.94,0-16.36,3.49-16.51,12-.16,8.79,7.42,12,19.7,16.67l6.82,2.58c20.15,7.58,33.18,18.64,33.18,41.07,0,24.54-19.4,39.24-45.76,39.24A80.7,80.7,0,0,1,491.47,174.64Z" transform="translate(-49.27 -46.71)"/><path d="M592.85,146.15V86h29.7v61.83c0,10.3,5.91,15.6,13.94,15.6s14.09-5.15,14.09-14.85V86h29.25v99.56H650.58v-6.37c-5.3,6.07-13.94,8.79-23.18,8.79C609.06,188,592.85,178.12,592.85,146.15Z" transform="translate(-49.27 -46.71)"/><path d="M698,185.55V86h27.88v7.58c5.15-7.13,14.24-10,21.67-10,6.06,0,10.76,1.37,14.7,4.4l-1.52,25.61c-4.24-2.12-9.54-3-15.15-3-11.37,0-17.88,5.3-18.34,14.39v60.62Z" transform="translate(-49.27 -46.71)"/><path d="M827.87,86H855.6l-29.4,99.56H794.69L764.53,86h28.94l17.43,68.8Z" transform="translate(-49.27 -46.71)"/><path d="M887,147V135.47c0-12,1.87-18.84,10-24.45,14.18-9.81,23.52-15.57,23.52-25.07,0-7.16-5.3-13.24-14.64-13.24-9.5,0-16.35,5.14-17.44,19.16h-29c0-31.93,22.27-45.16,46.72-45.16S950.73,59.94,950.73,86c0,18.84-10.59,29.12-27.72,40.34-4.36,3-5.76,6.07-5.76,10.12V147Zm0,39.09v-29.9h30.21v29.9Z" transform="translate(-49.27 -46.71)"/></svg>